<svg width="65" height="64" viewBox="0 0 65 64" fill="none" xmlns="http://www.w3.org/2000/svg">
<path d="M13.6851 38.8907H15.6851C15.6851 38.0958 15.2143 37.376 14.4858 37.0579L13.6851 38.8907ZM51.0184 38.8907L50.2176 37.0579C49.4891 37.376 49.0184 38.0958 49.0184 38.8907H51.0184ZM42.3517 18.6667C42.3517 19.7713 43.2472 20.6667 44.3517 20.6667C45.4563 20.6667 46.3517 19.7713 46.3517 18.6667H42.3517ZM18.3517 18.6667C18.3517 19.7713 19.2472 20.6667 20.3517 20.6667C21.4563 20.6667 22.3517 19.7713 22.3517 18.6667H18.3517ZM37.6851 56.6667C36.5805 56.6667 35.6851 57.5622 35.6851 58.6667C35.6851 59.7712 36.5805 60.6667 37.6851 60.6667V56.6667ZM27.0184 60.6667C28.1229 60.6667 29.0184 59.7712 29.0184 58.6667C29.0184 57.5622 28.1229 56.6667 27.0184 56.6667V60.6667ZM19.0184 11.3334C10.55 11.3334 3.68506 18.1983 3.68506 26.6667H7.68506C7.68506 20.4075 12.7592 15.3334 19.0184 15.3334V11.3334ZM45.6851 15.3334C51.9443 15.3334 57.0184 20.4075 57.0184 26.6667H61.0184C61.0184 18.1983 54.1533 11.3334 45.6851 11.3334V15.3334ZM24.3517 56.6667C21.781 56.6667 20.0542 56.6624 18.7661 56.4894C17.5355 56.3238 17.0089 56.0379 16.6614 55.6904L13.833 58.5187C15.0475 59.7334 16.559 60.2286 18.2331 60.4536C19.8497 60.671 21.8941 60.6667 24.3517 60.6667V56.6667ZM11.6851 48C11.6851 50.4576 11.6808 52.5022 11.8982 54.1187C12.1232 55.7928 12.6184 57.3043 13.833 58.5187L16.6614 55.6904C16.3139 55.343 16.0279 54.8163 15.8625 53.5856C15.6893 52.2976 15.6851 50.5707 15.6851 48H11.6851ZM49.0184 48C49.0184 50.5707 49.0141 52.2976 48.8411 53.5856C48.6755 54.8163 48.3896 55.343 48.0421 55.6904L50.8704 58.5187C52.0851 57.3043 52.5803 55.7928 52.8053 54.1187C53.0227 52.5022 53.0184 50.4576 53.0184 48H49.0184ZM40.3517 60.6667C42.8093 60.6667 44.8539 60.671 46.4704 60.4536C48.1445 60.2286 49.656 59.7334 50.8704 58.5187L48.0421 55.6904C47.6947 56.0379 47.168 56.3238 45.9373 56.4894C44.6493 56.6624 42.9224 56.6667 40.3517 56.6667V60.6667ZM19.0184 15.3334C19.5883 15.3334 20.1471 15.3753 20.6923 15.4559L21.2771 11.4988C20.539 11.3897 19.7846 11.3334 19.0184 11.3334V15.3334ZM32.3517 3.33337C26.1904 3.33337 20.9635 7.31231 19.0906 12.835L22.8787 14.1197C24.2179 10.1708 27.956 7.33337 32.3517 7.33337V3.33337ZM19.0906 12.835C18.611 14.2494 18.3517 15.7632 18.3517 17.3334H22.3517C22.3517 16.2058 22.5376 15.1257 22.8787 14.1197L19.0906 12.835ZM45.6851 11.3334C44.9189 11.3334 44.1645 11.3897 43.4264 11.4988L44.0112 15.4559C44.5563 15.3753 45.1152 15.3334 45.6851 15.3334V11.3334ZM32.3517 7.33337C36.7475 7.33337 40.4856 10.1708 41.8248 14.1197L45.6128 12.835C43.74 7.31231 38.5131 3.33337 32.3517 3.33337V7.33337ZM41.8248 14.1197C42.1659 15.1257 42.3517 16.2058 42.3517 17.3334H46.3517C46.3517 15.7632 46.0925 14.2494 45.6128 12.835L41.8248 14.1197ZM15.6851 48V38.8907H11.6851V48H15.6851ZM14.4858 37.0579C10.4789 35.3072 7.68506 31.311 7.68506 26.6667H3.68506C3.68506 32.9574 7.47306 38.359 12.8843 40.7232L14.4858 37.0579ZM49.0184 38.8907V48H53.0184V38.8907H49.0184ZM57.0184 26.6667C57.0184 31.311 54.2245 35.3072 50.2176 37.0579L51.8192 40.7232C57.2304 38.359 61.0184 32.9574 61.0184 26.6667H57.0184ZM42.3517 17.3334V18.6667H46.3517V17.3334H42.3517ZM18.3517 17.3334V18.6667H22.3517V17.3334H18.3517ZM40.3517 56.6667H37.6851V60.6667H40.3517V56.6667ZM27.0184 56.6667H24.3517V60.6667H27.0184V56.6667Z" fill="white"/>
</svg>
